<svg width="123" height="42" viewBox="0 0 123 42" fill="none" xmlns="http://www.w3.org/2000/svg">
<path d="M4.664 33.28H21.152V34H3.944V8.296H21.008V9.016H4.664V20.248H20.036V20.968H4.664V33.28ZM35.7359 15.496H36.5999L29.8319 24.424L37.2479 34H36.3479L29.3639 24.964L22.4159 34H21.5519L28.9319 24.424L22.1999 15.496H23.1359L29.3639 23.884L35.7359 15.496ZM40.1361 40.336H39.4161V15.496H40.1361V20.68H40.2081C40.4481 19.864 40.7961 19.12 41.2521 18.448C41.7081 17.752 42.2481 17.152 42.8721 16.648C43.4961 16.144 44.2041 15.76 44.9961 15.496C45.8121 15.208 46.6881 15.064 47.6241 15.064C48.8481 15.064 49.9401 15.304 50.9001 15.784C51.8841 16.264 52.7121 16.936 53.3841 17.8C54.0801 18.664 54.6081 19.684 54.9681 20.86C55.3281 22.036 55.5081 23.32 55.5081 24.712C55.5081 26.008 55.3281 27.244 54.9681 28.42C54.6321 29.596 54.1281 30.628 53.4561 31.516C52.8081 32.404 51.9921 33.112 51.0081 33.64C50.0241 34.144 48.8961 34.396 47.6241 34.396C45.6561 34.396 44.0361 33.892 42.7641 32.884C41.4921 31.852 40.6401 30.496 40.2081 28.816H40.1361V40.336ZM47.6241 33.712C48.8961 33.712 49.9761 33.448 50.8641 32.92C51.7761 32.368 52.5201 31.672 53.0961 30.832C53.6721 29.968 54.0921 29.008 54.3561 27.952C54.6441 26.872 54.7881 25.792 54.7881 24.712C54.7881 23.512 54.6321 22.384 54.3201 21.328C54.0321 20.248 53.5881 19.3 52.9881 18.484C52.4121 17.644 51.6681 16.984 50.7561 16.504C49.8681 16.024 48.8241 15.784 47.6241 15.784C46.4481 15.784 45.3921 16.024 44.4561 16.504C43.5201 16.984 42.7281 17.632 42.0801 18.448C41.4561 19.264 40.9761 20.212 40.6401 21.292C40.3041 22.372 40.1361 23.512 40.1361 24.712C40.1361 27.616 40.8201 29.848 42.1881 31.408C43.5561 32.944 45.3681 33.712 47.6241 33.712ZM60.192 34H59.472V15.496H60.192V20.068H60.264C60.432 19.372 60.696 18.724 61.056 18.124C61.416 17.5 61.896 16.96 62.496 16.504C63.096 16.048 63.804 15.688 64.62 15.424C65.46 15.16 66.432 15.04 67.536 15.064V15.784C66.264 15.712 65.16 15.892 64.224 16.324C63.312 16.732 62.556 17.308 61.956 18.052C61.356 18.772 60.912 19.612 60.624 20.572C60.336 21.532 60.192 22.516 60.192 23.524V34ZM69.1484 24.892C69.1724 26.14 69.3164 27.304 69.5804 28.384C69.8684 29.44 70.3004 30.364 70.8764 31.156C71.4524 31.948 72.1964 32.572 73.1084 33.028C74.0204 33.484 75.1364 33.712 76.4564 33.712C78.4004 33.712 80.0084 33.208 81.2804 32.2C82.5764 31.168 83.3804 29.632 83.6924 27.592H84.4124C84.1484 29.752 83.2964 31.432 81.8564 32.632C80.4164 33.808 78.6404 34.396 76.5284 34.396C75.0884 34.42 73.8524 34.192 72.8204 33.712C71.8124 33.232 70.9844 32.56 70.3364 31.696C69.6884 30.808 69.2084 29.776 68.8964 28.6C68.5844 27.4 68.4284 26.116 68.4284 24.748C68.4284 23.212 68.6564 21.844 69.1124 20.644C69.5684 19.444 70.1684 18.436 70.9124 17.62C71.6564 16.78 72.5204 16.144 73.5044 15.712C74.4884 15.28 75.4964 15.064 76.5284 15.064C77.9684 15.064 79.2044 15.34 80.2364 15.892C81.2924 16.444 82.1444 17.176 82.7924 18.088C83.4644 19 83.9444 20.044 84.2324 21.22C84.5444 22.396 84.6764 23.62 84.6284 24.892H69.1484ZM83.9084 24.172C83.9084 23.044 83.7524 21.976 83.4404 20.968C83.1284 19.936 82.6604 19.036 82.0364 18.268C81.4364 17.5 80.6804 16.9 79.7684 16.468C78.8564 16.012 77.8004 15.784 76.6004 15.784C75.5924 15.784 74.6444 15.976 73.7564 16.36C72.8924 16.744 72.1244 17.308 71.4524 18.052C70.8044 18.772 70.2764 19.648 69.8684 20.68C69.4604 21.712 69.2204 22.876 69.1484 24.172H83.9084ZM100.288 20.968C100.288 20.032 100.144 19.24 99.8564 18.592C99.5684 17.944 99.1604 17.416 98.6324 17.008C98.1044 16.576 97.4684 16.264 96.7244 16.072C96.0044 15.88 95.2004 15.784 94.3124 15.784C93.0164 15.784 91.9964 15.964 91.2524 16.324C90.5084 16.66 89.9564 17.056 89.5964 17.512C89.2364 17.944 89.0084 18.376 88.9124 18.808C88.8164 19.24 88.7684 19.54 88.7684 19.708C88.7684 20.62 88.9484 21.328 89.3084 21.832C89.6924 22.312 90.1964 22.684 90.8204 22.948C91.4684 23.212 92.1644 23.44 92.9084 23.632C93.6764 23.824 94.5644 24.052 95.5724 24.316C96.2924 24.508 97.0004 24.712 97.6964 24.928C98.4164 25.12 99.0524 25.396 99.6044 25.756C100.18 26.116 100.636 26.572 100.972 27.124C101.332 27.676 101.512 28.396 101.512 29.284C101.512 30.22 101.308 31.012 100.9 31.66C100.516 32.308 100 32.836 99.3524 33.244C98.7284 33.652 98.0084 33.94 97.1924 34.108C96.4004 34.3 95.6084 34.396 94.8164 34.396C92.3444 34.396 90.4724 33.856 89.2004 32.776C87.9524 31.696 87.3284 29.992 87.3284 27.664H88.0484C88.0484 29.752 88.6244 31.288 89.7764 32.272C90.9524 33.232 92.6324 33.712 94.8164 33.712C95.4884 33.712 96.1724 33.64 96.8684 33.496C97.5884 33.328 98.2364 33.076 98.8124 32.74C99.3884 32.38 99.8564 31.924 100.216 31.372C100.6 30.82 100.792 30.148 100.792 29.356C100.792 28.54 100.6 27.88 100.216 27.376C99.8564 26.872 99.3764 26.464 98.7764 26.152C98.2004 25.816 97.5284 25.552 96.7604 25.36C95.9924 25.168 95.2124 24.976 94.4204 24.784C93.5324 24.568 92.7524 24.364 92.0804 24.172C91.4084 23.98 90.8084 23.764 90.2804 23.524C89.5124 23.188 88.9484 22.72 88.5884 22.12C88.2284 21.52 88.0484 20.716 88.0484 19.708C88.0484 19.204 88.1564 18.676 88.3724 18.124C88.5884 17.572 88.9484 17.068 89.4524 16.612C89.9564 16.156 90.6044 15.784 91.3964 15.496C92.1884 15.208 93.1604 15.064 94.3124 15.064C96.3764 15.064 98.0084 15.532 99.2084 16.468C100.408 17.404 101.008 18.904 101.008 20.968H100.288ZM117.673 20.968C117.673 20.032 117.529 19.24 117.241 18.592C116.953 17.944 116.545 17.416 116.017 17.008C115.489 16.576 114.853 16.264 114.109 16.072C113.388 15.88 112.584 15.784 111.696 15.784C110.4 15.784 109.38 15.964 108.637 16.324C107.892 16.66 107.34 17.056 106.98 17.512C106.62 17.944 106.392 18.376 106.296 18.808C106.2 19.24 106.152 19.54 106.152 19.708C106.152 20.62 106.332 21.328 106.692 21.832C107.076 22.312 107.58 22.684 108.204 22.948C108.853 23.212 109.549 23.44 110.292 23.632C111.06 23.824 111.948 24.052 112.956 24.316C113.676 24.508 114.385 24.712 115.081 24.928C115.801 25.12 116.437 25.396 116.989 25.756C117.565 26.116 118.021 26.572 118.357 27.124C118.717 27.676 118.897 28.396 118.897 29.284C118.897 30.22 118.693 31.012 118.284 31.66C117.901 32.308 117.385 32.836 116.737 33.244C116.113 33.652 115.393 33.94 114.577 34.108C113.785 34.3 112.993 34.396 112.2 34.396C109.728 34.396 107.856 33.856 106.584 32.776C105.336 31.696 104.712 29.992 104.712 27.664H105.432C105.432 29.752 106.008 31.288 107.16 32.272C108.336 33.232 110.016 33.712 112.2 33.712C112.872 33.712 113.556 33.64 114.253 33.496C114.973 33.328 115.621 33.076 116.196 32.74C116.773 32.38 117.241 31.924 117.601 31.372C117.985 30.82 118.177 30.148 118.177 29.356C118.177 28.54 117.985 27.88 117.601 27.376C117.241 26.872 116.761 26.464 116.161 26.152C115.584 25.816 114.913 25.552 114.145 25.36C113.377 25.168 112.597 24.976 111.805 24.784C110.917 24.568 110.137 24.364 109.464 24.172C108.792 23.98 108.192 23.764 107.664 23.524C106.896 23.188 106.332 22.72 105.972 22.12C105.612 21.52 105.432 20.716 105.432 19.708C105.432 19.204 105.54 18.676 105.756 18.124C105.972 17.572 106.332 17.068 106.836 16.612C107.34 16.156 107.988 15.784 108.78 15.496C109.573 15.208 110.545 15.064 111.696 15.064C113.76 15.064 115.392 15.532 116.593 16.468C117.793 17.404 118.393 18.904 118.393 20.968H117.673Z" fill="#444444"/>
</svg>
